<svg xmlns="http://www.w3.org/2000/svg" xmlns:xlink="http://www.w3.org/1999/xlink" version="1.1" width="400" height="341.8803418803419" viewBox="0 0 400 341.8803418803419"><g><path d="M0.000 170.940 L 0.000 341.880 200.000 341.880 L 400.000 341.880 400.000 170.940 L 400.000 0.000 200.000 0.000 L 0.000 0.000 0.000 170.940 M295.897 23.620 C 334.295 27.830,359.329 59.776,363.925 110.427 C 364.206 113.530,364.588 117.607,364.774 119.487 C 364.959 121.368,365.111 127.675,365.111 133.504 C 365.111 139.333,364.959 145.641,364.774 147.521 C 364.588 149.402,364.204 153.479,363.920 156.581 C 358.224 218.768,321.006 252.768,269.823 242.541 C 252.114 239.003,240.104 230.078,228.576 211.889 C 224.889 206.072,223.748 204.995,222.171 205.839 C 220.255 206.865,220.357 203.963,220.167 262.393 C 219.977 320.884,220.111 317.339,218.013 319.566 C 216.112 321.584,216.773 321.538,189.563 321.538 L 164.597 321.538 162.897 320.665 C 161.673 320.037,160.957 319.366,160.342 318.272 L 159.487 316.752 159.288 263.932 C 159.086 210.286,159.068 209.613,157.804 207.685 C 156.500 205.695,154.886 207.008,150.410 213.702 C 136.352 234.720,119.545 244.103,95.952 244.103 C 57.501 244.102,33.613 222.520,26.907 181.720 C 26.022 176.337,25.508 35.291,26.362 32.197 C 27.578 27.791,27.078 27.863,56.410 27.863 L 81.197 27.863 82.906 28.718 C 84.274 29.402,84.786 29.915,85.470 31.282 L 86.325 32.991 86.522 98.632 C 86.736 169.663,86.617 165.279,88.536 172.688 C 90.186 179.063,92.936 184.231,96.658 187.952 C 112.259 203.554,146.568 198.760,156.013 179.658 C 159.337 172.936,159.304 173.756,159.319 96.581 C 159.333 25.494,159.153 30.997,161.517 29.138 C 163.581 27.514,163.456 27.521,189.744 27.521 C 217.398 27.521,216.826 27.475,218.588 29.860 C 219.932 31.679,219.957 31.922,220.204 45.128 C 220.455 58.592,220.522 59.343,221.586 60.486 C 223.279 62.302,224.727 61.192,228.570 55.129 C 244.566 29.891,265.167 20.250,295.897 23.620 M253.529 70.129 C 242.111 71.227,230.149 77.224,225.288 84.289 C 220.406 91.385,220.169 93.692,220.177 133.991 C 220.184 170.711,220.267 172.036,222.953 178.067 C 232.679 199.913,274.008 203.462,290.971 183.909 C 299.743 173.797,302.222 162.709,302.222 133.589 C 302.222 105.274,300.114 94.858,292.281 84.464 C 284.327 73.911,269.861 68.560,253.529 70.129 " stroke="none" fill="#ffffff" fill-rule="evenodd"></path><path d="M282.393 23.126 C 257.246 24.407,242.475 33.190,228.570 55.129 C 224.727 61.192,223.279 62.302,221.586 60.486 C 220.522 59.343,220.455 58.592,220.204 45.128 C 219.839 25.598,223.167 27.521,189.744 27.521 C 163.456 27.521,163.581 27.514,161.517 29.138 C 159.153 30.997,159.333 25.494,159.319 96.581 C 159.304 173.756,159.337 172.936,156.013 179.658 C 146.568 198.760,112.259 203.554,96.658 187.952 C 92.936 184.231,90.186 179.063,88.536 172.688 C 86.617 165.279,86.736 169.663,86.522 98.632 L 86.325 32.991 85.470 31.282 C 84.786 29.915,84.274 29.402,82.906 28.718 L 81.197 27.863 56.410 27.863 C 27.078 27.863,27.578 27.791,26.362 32.197 C 25.508 35.291,26.022 176.337,26.907 181.720 C 33.613 222.520,57.501 244.102,95.952 244.103 C 119.545 244.103,136.352 234.720,150.410 213.702 C 154.886 207.008,156.500 205.695,157.804 207.685 C 159.068 209.613,159.086 210.286,159.288 263.932 L 159.487 316.752 160.342 318.272 C 160.957 319.366,161.673 320.037,162.897 320.665 L 164.597 321.538 189.563 321.538 C 216.773 321.538,216.112 321.584,218.013 319.566 C 220.111 317.339,219.977 320.884,220.167 262.393 C 220.357 203.963,220.255 206.865,222.171 205.839 C 223.748 204.995,224.889 206.072,228.576 211.889 C 240.104 230.078,252.114 239.003,269.823 242.541 C 321.006 252.768,358.224 218.768,363.920 156.581 C 364.204 153.479,364.588 149.402,364.774 147.521 C 364.959 145.641,365.111 139.333,365.111 133.504 C 365.111 127.675,364.959 121.368,364.774 119.487 C 364.588 117.607,364.206 113.530,363.925 110.427 C 358.792 53.853,327.930 20.807,282.393 23.126 M263.419 70.096 C 279.261 71.579,289.612 78.062,296.002 90.501 C 300.945 100.125,302.222 108.972,302.222 133.589 C 302.222 162.709,299.743 173.797,290.971 183.909 C 274.008 203.462,232.679 199.913,222.953 178.067 C 220.267 172.036,220.184 170.711,220.177 133.991 C 220.170 96.681,220.338 94.145,223.234 87.956 C 228.785 76.094,245.958 68.462,263.419 70.096 " stroke="none" fill="#1b1512" fill-rule="evenodd"></path></g></svg>
